# xmcd CD database file
#
# Track frame offsets:
#	150
#	13202
#	23022
#	32255
#	46800
#	60892
#	71602
#	81627
#	92042
#	107652
#	121020
#	133455
#	145780
#	157862
#	168005
#	180345
#	188435
#	200447
#	209040
#	223527
#	237562
#	251312
#	264112
#	276282
#
# Disc length: 3826 seconds
#
# Revision: 0
# Processed by: cddbd v1.5.2PL0 Copyright (c) Steve Scherf et al.
# Submitted via: CDex 1.51
#
DISCID=410ef018
DTITLE=Pee Wee Hunt - 12th Street Rag
DYEAR=1900
DGENRE=Jazz
TTITLE0=Twelfth Street Rag
TTITLE1=Somebody Stole My Gal
TTITLE2=Tiger Rag
TTITLE3=St. Louis Blues
TTITLE4=Clarinet Marmalade
TTITLE5=Ida! Sweet As Apple Cider
TTITLE6=Chicago
TTITLE7=The Sheik of Araby
TTITLE8=Washington And Lee Swing
TTITLE9=Alexander's Ragtime Band
TTITLE10=Put On Your Old Grey Bonnet
TTITLE11=Darktown Strutter's Ball
TTITLE12=Oh!
TTITLE13=San
TTITLE14=When The Saints Go Marching In
TTITLE15=Peg O' My Heart
TTITLE16=Ja-Da
TTITLE17=How 'Ya Gonna Keep 'Em Down On The Farm
TTITLE18=Bill Bailey
TTITLE19=Jazz Me Blues
TTITLE20=Way Down Yonder In New Orleans
TTITLE21=Indiana (Back Home Again In Indiana)
TTITLE22=High Society
TTITLE23=Margie
EXTD=
EXTT0=
EXTT1=
EXTT2=
EXTT3=
EXTT4=
EXTT5=
EXTT6=
EXTT7=
EXTT8=
EXTT9=
EXTT10=
EXTT11=
EXTT12=
EXTT13=
EXTT14=
EXTT15=
EXTT16=
EXTT17=
EXTT18=
EXTT19=
EXTT20=
EXTT21=
EXTT22=
EXTT23=
PLAYORDER=
